<svg fill="none" height="22" id="OutsideLogo" viewBox="0 0 86 22" width="86"
  xmlns="http://www.w3.org/2000/svg">
  <title id="uniqueTitleID">Outside</title>
  <path d="M9.90888 21.3633C15.5844 21.3633 19.3616 17.1926 19.7978 11.5858H20.7574V17.7224C20.7574 20.1712 22.4388 21.1207 24.6427 21.1207C26.4111 21.1207 27.9174 20.0173 28.6376 18.7147V20.9451H33.8981V18.0975H32.2822V11.5858H34.8568V16.6183C34.8568 19.6198 36.0375 21.1207 38.7647 21.1207C40.3362 21.1207 41.1883 20.3481 41.7986 19.4652V20.9451H44.2435V19.3343C45.5095 20.702 46.7536 21.1215 48.6083 21.1215C50.3122 21.1215 51.7092 20.5258 52.4489 19.4225V20.9451H60.4177V19.1128C61.247 20.3701 62.7095 21.0991 64.6074 21.0991C66.31 21.0991 67.4027 20.3701 68.2541 19.0461V20.9451H73.9723V19.0677C75.1083 20.59 76.7887 21.208 79.0362 21.208C82.136 21.208 85.0156 19.928 85.4531 16.397H81.8519C81.5674 17.9207 80.8696 18.6489 79.2762 18.6489C77.944 18.6489 77.0057 17.8311 76.9391 15.4925H85.344V14.9841C85.344 11.0121 83.0075 8.51977 79.2762 8.51977C75.8054 8.51977 72.9901 10.9471 72.9901 14.8531C72.9901 16.0662 73.1651 17.1924 73.5793 18.0746H71.9209V4.56794H66.0922V7.48069H68.2544V10.4607C67.9078 9.92032 67.4317 9.47721 66.8705 9.17256C66.3092 8.8679 65.6809 8.71157 65.0439 8.71809C61.4646 8.71809 59.5447 11.2772 59.5447 14.7643C59.5302 15.8973 59.7068 17.0245 60.0668 18.0975H58.1257V8.71809H49.6125V10.2398C48.9347 9.26949 47.9545 8.60649 46.2514 8.60649C44.1997 8.60649 42.8895 9.24734 42.2578 10.1074V8.6738H38.5893V5.45228H35.6875C35.6875 7.63702 35.1186 8.6738 32.261 8.6738H26.6296V11.6526H28.6151V15.4709C28.6151 16.9941 27.8519 18.1625 26.2143 18.1625C24.8172 18.1625 24.4467 17.2133 24.4467 15.9564V8.67365H19.6229C18.7489 3.90624 15.3662 0 9.90888 0C3.62325 0 0 4.65754 0 10.7917C0 16.7505 3.95069 21.3633 9.90888 21.3633ZM47.8668 18.7813C46.1438 18.7813 45.3563 17.9864 44.5482 16.6619H40.4231C40.4881 18.0087 40.4671 18.7597 39.5711 18.7597C38.6751 18.7597 38.5896 17.8546 38.5896 17.1251V11.5858H41.9082C41.8904 11.7841 41.8833 11.9832 41.8868 12.1822C41.8868 17.7652 49.4596 15.5152 49.4596 17.8104C49.4596 18.6044 48.5433 18.7813 47.8665 18.7813H47.8668ZM52.8426 18.0745C52.888 17.7678 52.91 17.4581 52.9085 17.148C52.9085 11.8293 45.2463 13.9916 45.2463 11.8072C45.2463 11.0781 46.187 10.9471 47.0368 10.9471C48.237 10.9471 48.9347 11.3211 49.4815 12.4694H52.6251V11.5858H54.7872V18.0745H52.8426ZM10.4557 18.1625C7.48646 18.184 5.67484 13.3965 5.67484 9.18047C5.67484 6.75311 6.59132 3.06821 9.32013 3.06821C12.9441 3.06821 14.1448 8.98272 14.1448 11.8512C14.1448 14.5663 13.272 18.1629 10.4558 18.1629L10.4557 18.1625ZM65.9396 18.2732C63.953 18.2732 63.5154 16.2646 63.5154 14.632C63.5154 13.0426 64.127 11.2998 66.0046 11.2998C67.4884 11.2998 68.2539 12.7339 68.2539 14.1688V15.3833C68.2539 16.7945 67.5345 18.2732 65.9395 18.2732H65.9396ZM77.0061 13.5294C77.2674 11.7414 78.1839 11.0569 79.2985 11.0569C80.8043 11.0569 81.3508 11.962 81.4585 13.5294H77.0061ZM54.676 7.76731H58.1257V4.56737H54.676V7.76731Z" fill="black" />
</svg>
