<svg width="411" height="66" viewBox="0 0 411 66" fill="none" xmlns="http://www.w3.org/2000/svg">
<g id="Group 33425">
<g id="Group 33260">
<g id="Group 31969">
<g id="Rectangle 1695" filter="url(#filter0_ddd)">
<rect x="8" y="7" width="395" height="50" rx="10" fill="#FFD204"/>
</g>
</g>
<path id="Sign in with OUTSIDE" d="M114.731 33.768C114.987 35.784 116.475 37.16 119.275 37.16C122.187 37.16 123.707 35.768 123.707 33.768C123.707 32.2 123.003 31.016 119.803 30.248C118.011 29.848 117.547 29.528 117.547 28.76C117.547 27.976 118.123 27.576 119.099 27.576C120.523 27.576 120.891 28.312 121.019 29H123.419C123.259 27.384 122.091 25.816 119.163 25.816C116.555 25.816 115.115 27.112 115.115 29.032C115.115 30.52 115.851 31.624 118.859 32.328C120.747 32.76 121.275 33.144 121.275 34.056C121.275 34.856 120.731 35.368 119.451 35.368C118.171 35.368 117.387 34.872 117.131 33.768H114.731ZM126.468 25.976V37H128.852V25.976H126.468ZM142.084 30.824H137.332V32.776H139.748V32.888C139.748 33.864 139.364 35.288 137.332 35.288C135.14 35.288 134.404 33.416 134.404 31.512C134.404 29.576 135.044 27.672 137.316 27.672C138.932 27.672 139.508 28.552 139.732 29.288H142.116C141.86 27.416 140.18 25.816 137.348 25.816C133.876 25.816 131.94 28.312 131.94 31.624C131.94 34.76 133.732 37.192 136.932 37.192C138.468 37.192 139.54 36.744 140.148 35.912C140.18 36.28 140.244 36.664 140.34 37H142.084V30.824ZM147.676 37V33.64C147.676 31.672 147.644 29.4 147.564 28.44H147.596C148.156 29.72 150.972 34.84 152.156 37H154.956V25.976H152.796V29.24C152.796 31.048 152.796 32.968 152.924 34.12H152.892C152.38 32.92 149.836 28.44 148.46 25.976H145.5V37H147.676ZM163.453 25.976V37H165.837V25.976H163.453ZM171.644 37V33.64C171.644 31.672 171.612 29.4 171.532 28.44H171.564C172.124 29.72 174.94 34.84 176.124 37H178.924V25.976H176.764V29.24C176.764 31.048 176.764 32.968 176.892 34.12H176.86C176.348 32.92 173.804 28.44 172.428 25.976H169.468V37H171.644ZM191.661 37C192.253 34.776 193.245 31.064 193.645 29.096H193.661C194.045 30.984 195.021 34.552 195.597 37H198.077L201.053 25.976H198.749C198.349 27.688 197.277 31.96 196.909 34.392H196.893C196.525 32.36 195.421 28.088 194.845 25.976H192.701C192.061 28.632 190.989 32.472 190.573 34.504H190.557C190.429 33.288 189.965 31.032 188.925 25.976H186.381L189.197 37H191.661ZM203.484 25.976V37H205.868V25.976H203.484ZM211.864 37H214.248V27.928H217.592V25.976H208.504V27.928H211.864V37ZM220.062 37H222.446V32.232H226.894V37H229.278V25.976H226.894V30.264H222.446V25.976H220.062V37ZM242.661 25.816C239.237 25.816 237.237 28.28 237.237 31.48C237.237 34.648 239.045 37.16 242.517 37.16C246.101 37.16 247.941 34.52 247.941 31.448C247.941 28.072 245.893 25.816 242.661 25.816ZM242.565 27.752C244.613 27.752 245.477 29.384 245.477 31.48C245.477 33.448 244.725 35.224 242.597 35.224C240.645 35.224 239.701 33.592 239.701 31.432C239.701 29.288 240.565 27.752 242.565 27.752ZM250.871 25.976V32.472C250.871 36.152 253.015 37.16 255.511 37.16C257.943 37.16 260.151 36.2 260.151 32.424V25.976H257.751V32.536C257.751 34.552 256.903 35.288 255.543 35.288C254.343 35.288 253.255 34.664 253.255 32.536V25.976H250.871ZM266.067 37H268.451V27.928H271.795V25.976H262.707V27.928H266.067V37ZM273.684 33.768C273.94 35.784 275.428 37.16 278.228 37.16C281.14 37.16 282.66 35.768 282.66 33.768C282.66 32.2 281.956 31.016 278.756 30.248C276.964 29.848 276.5 29.528 276.5 28.76C276.5 27.976 277.076 27.576 278.052 27.576C279.476 27.576 279.844 28.312 279.972 29H282.372C282.212 27.384 281.044 25.816 278.116 25.816C275.508 25.816 274.068 27.112 274.068 29.032C274.068 30.52 274.804 31.624 277.812 32.328C279.7 32.76 280.228 33.144 280.228 34.056C280.228 34.856 279.684 35.368 278.404 35.368C277.124 35.368 276.34 34.872 276.084 33.768H273.684ZM285.421 25.976V37H287.805V25.976H285.421ZM291.437 37H295.709C299.085 37 301.133 34.568 301.133 31.352C301.133 28.088 299.021 25.976 295.821 25.976H291.437V37ZM293.821 27.896H295.629C297.789 27.896 298.669 29.544 298.669 31.352C298.669 33.496 297.725 35.08 295.613 35.08H293.821V27.896ZM311.818 30.28H306.538V27.928H312.042V25.976H304.218V37H312.074L312.362 35.048H306.538V32.248H311.818V30.28Z" fill="black"/>
</g>
<g id="Frame" clip-path="url(#clip0)">
<g id="Group">
<path id="Vector" d="M50.5504 29.922C49.1581 22.7562 43.7689 16.882 35.073 16.882C25.0578 16.882 19.2852 23.8839 19.2852 33.1074C19.2852 42.0657 25.5799 49.0001 35.073 49.0001C44.1162 49.0001 50.1338 42.7298 50.8292 34.3012C50.8691 33.6673 50.8729 33.0319 50.8397 32.3973C50.7953 31.5671 50.6988 30.7406 50.5504 29.922ZM35.9447 44.1888C31.214 44.2212 28.3277 37.0238 28.3277 30.686C28.3277 27.037 29.7878 21.4962 34.1357 21.4962C39.9107 21.4962 41.8236 30.3877 41.8236 34.7001C41.8228 38.7818 40.4313 44.1888 35.9447 44.1888Z" fill="#ED1C24"/>
</g>
<g id="Group_2">
<path id="Vector_2" d="M50.5504 29.922C49.1581 22.7562 43.7689 16.882 35.073 16.882C25.0578 16.882 19.2852 23.8839 19.2852 33.1074C19.2852 42.0657 25.5799 49.0001 35.073 49.0001C44.1162 49.0001 50.1338 42.7298 50.8292 34.3012C50.8691 33.6673 50.8729 33.0319 50.8397 32.3973C50.7953 31.5671 50.6988 30.7406 50.5504 29.922ZM35.9447 44.1888C31.214 44.2212 28.3277 37.0238 28.3277 30.686C28.3277 27.037 29.7878 21.4962 34.1357 21.4962C39.9107 21.4962 41.8236 30.3877 41.8236 34.7001C41.8228 38.7818 40.4313 44.1888 35.9447 44.1888Z" fill="#ED1C24"/>
</g>
<g id="Group_3">
<path id="Vector_3" d="M49.2793 29.0759C47.887 21.9087 42.4971 16.0359 33.8011 16.0359C23.786 16.0359 18.0133 23.0378 18.0133 32.2599C18.0133 41.2182 24.3081 48.1526 33.8011 48.1526C42.8451 48.1526 48.8627 41.8823 49.5573 33.4537C49.5573 33.4537 49.5897 31.9882 49.5438 31.2299C49.494 30.5076 49.4051 29.7889 49.2793 29.0759ZM34.6728 43.3406C29.9421 43.373 27.0558 36.1756 27.0558 29.8378C27.0558 26.1887 28.5159 20.648 32.8639 20.648C38.6381 20.648 40.551 29.5395 40.551 33.8519C40.5502 37.9336 39.1594 43.3406 34.6728 43.3406Z" fill="white"/>
</g>
<g id="Group_4">
<path id="Vector_4" d="M33.8011 48.1885C31.4798 48.1885 29.2972 47.776 27.3142 46.9624C25.4073 46.1797 23.7272 45.0455 22.319 43.5901C19.5186 40.6943 17.9756 36.6701 17.9756 32.2599C17.9756 29.9586 18.3327 27.793 19.0364 25.823C19.7416 23.8479 20.7806 22.1128 22.1239 20.666C24.9567 17.6136 28.995 16 33.8011 16C37.8989 16 41.5311 17.3282 44.3045 19.8424C46.86 22.1588 48.5929 25.3493 49.3154 29.0695L49.3373 29.183L49.3343 29.1802C49.4503 29.8565 49.5332 30.5443 49.5806 31.2278C49.6266 31.9789 49.5949 33.4401 49.5942 33.4545C49.4217 35.5517 48.9214 37.5247 48.1077 39.3208C47.2985 41.1076 46.1978 42.678 44.8356 43.9897C41.9847 46.7367 38.1679 48.1885 33.8011 48.1885ZM33.8011 16.0719C29.0176 16.0719 24.9989 17.6768 22.1796 20.7135C20.8431 22.1531 19.8094 23.8802 19.1072 25.846C18.4065 27.8088 18.0509 29.9665 18.0509 32.2599C18.0509 36.6521 19.5864 40.6591 22.3748 43.5412C23.7754 44.9887 25.4472 46.1179 27.3443 46.8963C29.3175 47.7063 31.4904 48.1167 33.8011 48.1167C38.1475 48.1167 41.9448 46.672 44.7829 43.9387C46.1383 42.6334 47.2337 41.0702 48.0391 39.292C48.8491 37.5031 49.3471 35.5381 49.5196 33.4509C49.5196 33.4387 49.5512 31.9804 49.506 31.2322C49.4563 30.5149 49.3674 29.7911 49.2416 29.0817L49.2401 29.0716C48.5191 25.3709 46.7945 22.1977 44.2532 19.8948C41.4935 17.3936 37.8793 16.0719 33.8011 16.0719ZM34.6404 43.3766C33.3649 43.3766 32.1722 42.8591 31.0948 41.8385C28.656 39.5285 27.0173 34.7058 27.0173 29.8371C27.0173 27.7139 27.495 25.4794 28.2944 23.8586C29.3424 21.7341 30.9223 20.6114 32.8631 20.6114C36.0598 20.6114 37.914 23.334 38.907 25.6181C40.1479 28.4744 40.5879 31.838 40.5879 33.8512C40.5879 38.2448 39.0388 43.3759 34.6728 43.3759C34.6622 43.3766 34.6517 43.3766 34.6404 43.3766ZM34.672 43.3047V43.3407V43.3047C38.9831 43.3047 40.5125 38.2125 40.5125 33.8519C40.5125 31.846 40.074 28.4931 38.8369 25.6469C37.853 23.3828 36.0184 20.684 32.8631 20.684C30.4506 20.684 29.0847 22.4276 28.3629 23.8896C27.5681 25.501 27.0934 27.7247 27.0934 29.8378C27.0934 34.6878 28.7231 39.4904 31.1491 41.7882C32.2204 42.8031 33.404 43.3155 34.672 43.3047Z" fill="black"/>
</g>
</g>
</g>
<defs>
<filter id="filter0_ddd" x="0" y="0" width="411" height="66" filterUnits="userSpaceOnUse" color-interpolation-filters="sRGB">
<feFlood flood-opacity="0" result="BackgroundImageFix"/>
<feColorMatrix in="SourceAlpha" type="matrix" values="0 0 0 0 0 0 0 0 0 0 0 0 0 0 0 0 0 0 127 0"/>
<feOffset dy="1"/>
<feGaussianBlur stdDeviation="4"/>
<feColorMatrix type="matrix" values="0 0 0 0 0 0 0 0 0 0 0 0 0 0 0 0 0 0 0.1 0"/>
<feBlend mode="normal" in2="BackgroundImageFix" result="effect1_dropShadow"/>
<feColorMatrix in="SourceAlpha" type="matrix" values="0 0 0 0 0 0 0 0 0 0 0 0 0 0 0 0 0 0 127 0"/>
<feOffset dy="2"/>
<feGaussianBlur stdDeviation="2"/>
<feColorMatrix type="matrix" values="0 0 0 0 0 0 0 0 0 0 0 0 0 0 0 0 0 0 0.12 0"/>
<feBlend mode="normal" in2="effect1_dropShadow" result="effect2_dropShadow"/>
<feColorMatrix in="SourceAlpha" type="matrix" values="0 0 0 0 0 0 0 0 0 0 0 0 0 0 0 0 0 0 127 0"/>
<feOffset dy="1"/>
<feGaussianBlur stdDeviation="1"/>
<feColorMatrix type="matrix" values="0 0 0 0 0 0 0 0 0 0 0 0 0 0 0 0 0 0 0.1 0"/>
<feBlend mode="normal" in2="effect2_dropShadow" result="effect3_dropShadow"/>
<feBlend mode="normal" in="SourceGraphic" in2="effect3_dropShadow" result="shape"/>
</filter>
<clipPath id="clip0">
<rect width="32.8866" height="33" fill="white" transform="translate(17.9756 16)"/>
</clipPath>
</defs>
</svg>
